PathFileType	4	(X/Y/Z)	./resultDataOpenSim/trcMotMarkerGrf/sub09/qtm-14-03.trc
DataRate	CameraRate	NumFrames	NumMarkers	Units	OrigDataRate	OrigDataStartFrame	OrigNumFrames
250.000000	250.000000	12	24	m	250.000000	365	486
Frame#	Time	L.Toe.Tip			R.Toe.Tip			L.Ankle.Lat			R.Ankle.Lat			L.Ankle.Med			R.Ankle.Med			L.Heel			R.Heel			L.Knee.Lat			R.Knee.Lat			L.Knee.Med			R.Knee.Med			L.Thigh.Upper			R.Thigh.Upper			L.ASIS			R.ASIS			V.Sacral			L.Acromium			R.Acromium			C7			L.Elbow			R.Elbow			L.Wrist.Lat			R.Wrist.Lat
		X1	Y1	Z1	X2	Y2	Z2	X3	Y3	Z3	X4	Y4	Z4	X5	Y5	Z5	X6	Y6	Z6	X7	Y7	Z7	X8	Y8	Z8	X9	Y9	Z9	X10	Y10	Z10	X11	Y11	Z11	X12	Y12	Z12	X13	Y13	Z13	X14	Y14	Z14	X15	Y15	Z15	X16	Y16	Z16	X17	Y17	Z17	X18	Y18	Z18	X19	Y19	Z19	X20	Y20	Z20	X21	Y21	Z21	X22	Y22	Z22	X23	Y23	Z23	X24	Y24	Z24

365	1.456	0.91275041	0.11914582	-0.051185149	1.1144339	0.039702433	0.0582371	0.8522342	0.26299345	-0.083197055	0.96881568	0.058782712	0.10217588	0.87693095	0.25187585	0.012399168	0.97761245	0.10058621	0.011312931	0.77720408	0.28935465	-0.035655011	0.89639348	0.043967995	0.055386107	1.171713	0.51001608	-0.099213599	1.101151	0.49428253	0.1681116	1.172596	0.49837247	0.027079522	1.0771406	0.48912846	0.043339564	0.98598507	0.87805384	-0.12086989	1.0062075	0.89127828	0.2494811	1.0619686	0.96434386	-0.065508407	1.0850556	0.97381314	0.17025773	0.90722845	1.0298509	0.062578071	1.078437	1.4124324	-0.1291281	1.0723541	1.4398515	0.20025948	1.0086504	1.4769422	0.034256732	0.92989967	1.0702948	-0.16274973	0.91953021	1.1105198	0.30843162	1.0567302	0.84108015	-0.20071402	1.0962468	0.89478433	0.31991089
366	1.46	0.93014137	0.11751764	-0.052670365	1.1145653	0.039739184	0.058270545	0.86584906	0.25968596	-0.084354266	0.96900442	0.059265995	0.10209901	0.89071488	0.2488404	0.011202578	0.97814583	0.10107482	0.011194999	0.78995513	0.28396674	-0.036962677	0.8966886	0.044746191	0.055243899	1.1805362	0.51336567	-0.099134928	1.1024983	0.49460168	0.16832579	1.1830297	0.50179096	0.027432829	1.0781531	0.48956436	0.043335694	0.99187541	0.87991798	-0.12121393	1.0106429	0.89237019	0.24912119	1.0673201	0.96621106	-0.065647327	1.0898586	0.97502528	0.17016478	0.91220507	1.0312573	0.062279393	1.082729	1.4140112	-0.12935732	1.0771058	1.4414383	0.19995144	1.0131463	1.4784154	0.034188046	0.93355483	1.0726219	-0.16260216	0.92487997	1.1115934	0.30828208	1.0583716	0.84248803	-0.20208883	1.1031557	0.89703774	0.31872666
367	1.464	0.94763126	0.11585076	-0.054029982	1.1146949	0.039779839	0.058302188	0.87957733	0.25621528	-0.085516595	0.96920614	0.05975767	0.10203312	0.90493	0.24568845	0.0099500199	0.97873365	0.10157933	0.011100129	0.80292679	0.27848123	-0.038396016	0.89705605	0.045473612	0.055265331	1.1892897	0.51657371	-0.099051888	1.1040659	0.49496859	0.16846856	1.193721	0.50516363	0.027841245	1.0792191	0.49001172	0.043407811	0.99804727	0.88171638	-0.12155247	1.0152968	0.89347524	0.24864506	1.072683	0.96801582	-0.065787451	1.0946464	0.9761995	0.17006712	0.91716613	1.0325727	0.061876409	1.0870324	1.4155387	-0.12957867	1.0817807	1.4429791	0.19971843	1.0176583	1.4798445	0.034126193	0.93719115	1.0747948	-0.16259804	0.93021905	1.1126138	0.30812788	1.0600557	0.84386393	-0.20344388	1.1100094	0.89923312	0.31754631
368	1.468	0.96524419	0.11416854	-0.055260355	1.1147947	0.03980167	0.058346716	0.89342391	0.25258185	-0.086671526	0.96938129	0.060263234	0.10199531	0.91957159	0.24243025	0.0086174321	0.97933494	0.10211804	0.011109403	0.81612717	0.27289362	-0.039950602	0.8975083	0.046111181	0.055411287	1.1980549	0.51960195	-0.098936213	1.1058628	0.49532026	0.16857229	1.2038931	0.50841705	0.028127596	1.0807112	0.4902952	0.043740871	1.0042659	0.88345354	-0.12196509	1.0202066	0.89459538	0.24801977	1.0780458	0.96976438	-0.065922621	1.0994198	0.97733543	0.16997148	0.9219361	1.0337392	0.06133201	1.0913484	1.4170154	-0.12978826	1.0864411	1.4445006	0.19952288	1.0221734	1.4812263	0.034047262	0.94082697	1.0768132	-0.16275377	0.93554604	1.1135798	0.30797195	1.0617838	0.84520747	-0.20476439	1.1168185	0.90137118	0.31636853
369	1.472	0.98292492	0.11246591	-0.056353068	1.1148515	0.039789943	0.058414691	0.90739494	0.24878208	-0.087811845	0.96949561	0.0607803	0.10199589	0.93439722	0.23906639	0.0072654409	0.97994812	0.10271731	0.011268254	0.82954818	0.26715347	-0.041561759	0.89796238	0.046703586	0.055557543	1.2068217	0.52244166	-0.098792545	1.1076569	0.49560864	0.16866561	1.2131014	0.51150095	0.028191685	1.082675	0.49037306	0.044320191	1.0103678	0.8851235	-0.12248392	1.0252903	0.89570641	0.24728015	1.0833997	0.97145609	-0.066053187	1.1041841	0.97843665	0.16988165	0.92647427	1.0347581	0.060657826	1.0956769	1.4184377	-0.12998442	1.0911187	1.4460074	0.1993412	1.0266695	1.4825566	0.033940493	0.94447467	1.0787307	-0.16300074	0.94085807	1.1144897	0.30781464	1.0635592	0.84652266	-0.20605304	1.123601	0.9034564	0.3151901
370	1.476	1.0006361	0.11072855	-0.057337558	1.1148965	0.039759953	0.058494314	0.92149381	0.2448164	-0.088938817	0.96954492	0.061300914	0.10202732	0.94908794	0.23560076	0.0059865151	0.98055857	0.10336357	0.011514609	0.84316351	0.26120895	-0.043139265	0.8983004	0.047329235	0.05558437	1.2154424	0.52513996	-0.098670041	1.1091653	0.49584669	0.1687664	1.2214158	0.51441081	0.028052064	1.0846806	0.49043184	0.044904616	1.0162828	0.88672067	-0.12306227	1.0303074	0.89675398	0.24657192	1.0887457	0.97308315	-0.06618124	1.1089458	0.97950771	0.16979754	0.93097318	1.0357237	0.059974964	1.1000191	1.4198042	-0.13017249	1.0957917	1.4474649	0.1991705	1.03115	1.4838286	0.033824873	0.94811905	1.0805978	-0.16326378	0.94614971	1.1153405	0.30765308	1.0653846	0.84780997	-0.20732218	1.1303588	0.90549074	0.31401092
371	1.48	1.0184087	0.10893777	-0.058266369	1.1149966	0.039741345	0.058553298	0.93572417	0.24069384	-0.090055679	0.96958833	0.061817378	0.1020561	0.96354281	0.23203745	0.0048207878	0.98100146	0.10397315	0.011700177	0.85692207	0.25505288	-0.044626135	0.8984917	0.048006578	0.055449737	1.223754	0.52775927	-0.098627231	1.1103542	0.49608349	0.16889072	1.2292131	0.51717028	0.027801708	1.086379	0.49064671	0.045303822	1.0220236	0.8882453	-0.12362726	1.0348834	0.89765762	0.24611614	1.0940915	0.97463509	-0.066308055	1.1137073	0.98055032	0.1697178	0.93571015	1.036738	0.059446883	1.1043779	1.4211183	-0.1303663	1.1004289	1.4488293	0.19900797	1.035644	1.4850415	0.03372862	0.95174941	1.0824304	-0.16351747	0.95141778	1.116131	0.30748585	1.0672607	0.84906603	-0.20857985	1.1370792	0.90747163	0.31283217
372	1.484	1.0362858	0.10708212	-0.059166656	1.1152015	0.039746724	0.058565497	0.95009951	0.236434	-0.091164935	0.96973194	0.062317824	0.1020374	0.97790058	0.22838214	0.0037431905	0.98109665	0.10446717	0.011712304	0.87077782	0.24872014	-0.046022586	0.89859658	0.048711609	0.055201353	1.2317137	0.53031858	-0.09868531	1.1114939	0.496345	0.16906215	1.2368128	0.5197938	0.027522536	1.0878489	0.49097932	0.04551559	1.0276731	0.88969806	-0.12414912	1.0387838	0.89837472	0.2460299	1.0994425	0.97610116	-0.066433578	1.1184652	0.98156343	0.16964138	0.94078516	1.0378067	0.059115332	1.1087575	1.4223888	-0.13058247	1.105031	1.4500886	0.19884671	1.0401677	1.4862032	0.033655447	0.95537268	1.0842138	-0.16377792	0.95666341	1.1168612	0.30731506	1.0691876	0.85028737	-0.20982819	1.1437516	0.90939413	0.31165317
373	1.488	1.0542456	0.10518557	-0.060025031	1.1154733	0.039761449	0.058543506	0.96463271	0.2320636	-0.092268297	0.97001183	0.062794534	0.10196134	0.9923172	0.22464302	0.0027168606	0.98096754	0.1048758	0.011586146	0.88476015	0.24224395	-0.047381227	0.89869696	0.049443479	0.054944744	1.2393607	0.53280249	-0.098824897	1.1129775	0.49662247	0.16929756	1.2443256	0.52227581	0.027245133	1.0893169	0.49128458	0.045634903	1.0333108	0.89107785	-0.12463992	1.0422783	0.89898878	0.24615499	1.1047991	0.97747438	-0.066557589	1.1232126	0.98254482	0.16956832	0.94605764	1.0388475	0.058851938	1.1131614	1.4236214	-0.13082491	1.1096226	1.4512585	0.19868831	1.0447091	1.4873189	0.033587514	0.95900239	1.0859298	-0.16406347	0.96188961	1.1175315	0.3071441	1.0711671	0.85147099	-0.21106674	1.1503796	0.91125589	0.3104719
374	1.492	1.0722169	0.10330006	-0.060810134	1.1156896	0.039758403	0.058537213	0.97931391	0.22760645	-0.093361633	0.97034835	0.063258517	0.10186134	1.0068527	0.22082334	0.0017267786	0.98094538	0.10530142	0.011458425	0.89896496	0.23563148	-0.048763138	0.89883725	0.050210887	0.054752984	1.2467231	0.53519783	-0.099006325	1.1149986	0.49689825	0.16957469	1.2517373	0.52461169	0.026967402	1.0908797	0.49149354	0.045751951	1.0389535	0.89238472	-0.12511041	1.0459372	0.89964948	0.24619332	1.1101611	0.97876102	-0.066679151	1.1279396	0.98349018	0.16950277	0.95132885	1.0397809	0.058495572	1.1175878	1.4248024	-0.13107163	1.1142237	1.4523551	0.19853963	1.0492491	1.4883812	0.033504224	0.96265247	1.087578	-0.16437694	0.96709836	1.118143	0.30697263	1.0732026	0.8526148	-0.21228991	1.1569829	0.91306272	0.30928789
375	1.496	1.0901643	0.10146304	-0.061506548	1.1157744	0.039740542	0.058586727	0.99412304	0.22307153	-0.094432661	0.97068098	0.063723306	0.10175468	1.0215086	0.21691986	0.00077644971	0.98118256	0.10579222	0.011410903	0.91343426	0.22888724	-0.050166853	0.89899624	0.050997674	0.054588046	1.2538292	0.53748582	-0.099188589	1.1172698	0.49715615	0.16982974	1.2590214	0.5268057	0.026683376	1.0925329	0.49164163	0.045901236	1.0445789	0.89361745	-0.12555355	1.0499832	0.90041372	0.24601651	1.115527	0.97997837	-0.066798021	1.132634	0.98439174	0.16945488	0.95651912	1.0405916	0.057996921	1.1220307	1.4259065	-0.13129101	1.1188356	1.4533862	0.198398	1.0537811	1.4893779	0.033395639	0.96633349	1.0891675	-0.16471143	0.97228866	1.1186983	0.30679417	1.075298	0.85371794	-0.21349049	1.1635784	0.91482353	0.30810599
376	1.5	1.1081252	0.099675742	-0.062132382	1.1157811	0.039761223	0.058697929	1.0090566	0.21844844	-0.095461473	0.97101544	0.064187194	0.10163301	1.036283	0.21293347	-0.00012881348	0.98158999	0.10631518	0.011422564	0.92811075	0.22203412	-0.051527162	0.89910842	0.051787734	0.054342826	1.26077	0.5396162	-0.099346473	1.1192416	0.49739049	0.17000791	1.2661652	0.52885227	0.026391221	1.0942504	0.49178931	0.046065803	1.0501751	0.89477136	-0.1259664	1.0540626	0.90122791	0.24572743	1.1208987	0.98113564	-0.066916409	1.1372939	0.98524175	0.16943085	0.9616556	1.0413201	0.057400064	1.1264839	1.426926	-0.13147445	1.1234424	1.4543555	0.19825672	1.0583111	1.4903099	0.033274978	0.97004722	1.0906955	-0.16505863	0.97746022	1.1192004	0.30660486	1.077453	0.85477912	-0.21467097	1.1701499	0.91653509	0.30693556
